<svg xmlns="http://www.w3.org/2000/svg" width="36" height="36.004" viewBox="0 0 36 36.004"><defs><style>.a{fill:#eee;}</style></defs><path class="a" d="M-7994.984,1068.583a17.962,17.962,0,0,1-5.734-3.874,18.05,18.05,0,0,1-3.866-5.744,17.976,17.976,0,0,1-1.417-7.032,17.993,17.993,0,0,1,1.417-7.034,17.979,17.979,0,0,1,3.866-5.744,17.99,17.99,0,0,1,5.734-3.872,17.8,17.8,0,0,1,4.278-1.214l.11-.012a10.1,10.1,0,0,1,1.049-.056c4.057,0,4.557,2.827,4.613,3.693l0,.068a1.546,1.546,0,0,1,0,.175l.008-.022a14.953,14.953,0,0,0,1.3,5.19,15.016,15.016,0,0,0,3.064,4.416,15,15,0,0,0,6.717,3.9c1.173.394,3.855,1.627,3.456,4.541,0,.028-.008.054-.01.08a17.973,17.973,0,0,1-.95,2.923,18.05,18.05,0,0,1-3.866,5.744,17.967,17.967,0,0,1-5.734,3.874,17.905,17.905,0,0,1-7.022,1.421A17.9,17.9,0,0,1-7994.984,1068.583Zm3.225-8.62h14.814a.989.989,0,0,0,.88-.526.985.985,0,0,0-.046-1.025l-7.406-11.238a1,1,0,0,0-.836-.448,1,1,0,0,0-.833.448l-6.862,10.414-2.783-4.342a.994.994,0,0,0-.842-.462.993.993,0,0,0-.842.462l-3.317,5.178a.982.982,0,0,0-.034,1.019.983.983,0,0,0,.876.52h6.634a1.022,1.022,0,0,0,.3-.044A1.013,1.013,0,0,0-7991.759,1059.963Zm-5.029-12.55a3.515,3.515,0,0,0,3.508,3.514,3.517,3.517,0,0,0,3.508-3.514,3.517,3.517,0,0,0-3.508-3.514A3.515,3.515,0,0,0-7996.788,1047.414Zm22.948,1.909a12.558,12.558,0,0,1-6.482-4.553,13.087,13.087,0,0,1-2.628-7.9,3.163,3.163,0,0,0-.566-1.768l13.516,16.4,0,0A8.776,8.776,0,0,0-7973.84,1049.323Z" transform="translate(8006 -1034)"/></svg>